<?xml version="1.0" encoding="utf-8"?>
<!-- Generator: Adobe Illustrator 22.1.0, SVG Export Plug-In . SVG Version: 6.00 Build 0)  -->
<svg version="1.1" id="Layer_1" xmlns="http://www.w3.org/2000/svg" xmlns:xlink="http://www.w3.org/1999/xlink" x="0px" y="0px"
	 viewBox="0 0 512 512" style="enable-background:new 0 0 512 512;" xml:space="preserve">
<style type="text/css">
	.st0{fill:#7FB8F5;}
</style>
<g transform="translate(1 1)">
	<g>
		<path class="st0" d="M174.3,304H106v-68.3h68.3V176c0-48.6,37.5-89.6,85.3-93.9h76.8v68.3h-68.3c-14.5,0-25.6,11.1-25.6,25.6v59.7
			h85.3V304h-85.3v154l-68.3,16.7L174.3,304L174.3,304z M259.6,474.7V321.1h85.3V218.7h-85.3V176c0-5.1,3.4-8.5,8.5-8.5h85.3V65.1
			h-94.7c-57.2,5.1-101.5,53.8-101.5,110.9v42.7H88.9v102.4h68.3v153.6 M413.2,449.1L413.2,449.1"/>
	</g>
</g>
<polyline class="st0" points="175.3,475.7 175.3,459.1 243.5,459 "/>
</svg>
