<?xml version="1.0" encoding="utf-8"?>
<!-- Generator: Adobe Illustrator 22.1.0, SVG Export Plug-In . SVG Version: 6.00 Build 0)  -->
<svg version="1.1" id="Capa_1" xmlns="http://www.w3.org/2000/svg" xmlns:xlink="http://www.w3.org/1999/xlink" x="0px" y="0px"
	 viewBox="0 0 489.3 489.3" style="enable-background:new 0 0 489.3 489.3;" xml:space="preserve">
<style type="text/css">
	.st0{fill:none;stroke:#000000;stroke-miterlimit:10;}
</style>
<g>
	<g>
		<path class="st0" d="M79.6,229.7c-10.2,10.2-10.2,26.8,0,37.1c10.2,10.2,26.8,10.2,37.1,0c70.6-70.6,185.5-70.6,256.1,0
			c5.1,5.1,11.8,7.7,18.5,7.7s13.4-2.6,18.5-7.7c10.2-10.2,10.2-26.8,0-37.1C318.8,138.6,170.6,138.6,79.6,229.7z"/>
		<path d="M150.4,300.5c-10.2,10.2-10.2,26.8,0,37.1c10.2,10.2,26.8,10.2,37.1,0c31.5-31.6,82.9-31.6,114.4,0
			c5.1,5.1,11.8,7.7,18.5,7.7s13.4-2.6,18.5-7.7c10.2-10.2,10.2-26.8,0-37C287,248.5,202.4,248.5,150.4,300.5z"/>
		<circle cx="244.6" cy="394.7" r="34.9"/>
		<path class="st0" d="M481.6,157.7C351,27.1,138.4,27.1,7.6,157.7c-10.2,10.2-10.2,26.8,0,37.1c10.2,10.2,26.8,10.2,37.1,0
			c110.2-110.3,289.6-110.3,399.9,0c5.1,5.1,11.8,7.7,18.5,7.7s13.4-2.6,18.5-7.7C491.9,184.6,491.9,168,481.6,157.7z"/>
	</g>
</g>
</svg>
