<?xml version="1.0" encoding="utf-8"?>
<!-- Generator: Adobe Illustrator 22.1.0, SVG Export Plug-In . SVG Version: 6.00 Build 0)  -->
<svg version="1.1" xmlns="http://www.w3.org/2000/svg" xmlns:xlink="http://www.w3.org/1999/xlink" x="0px" y="0px"
	 viewBox="0 0 288.6 362.2" style="enable-background:new 0 0 288.6 362.2;" xml:space="preserve">
<style type="text/css">
	.st0{display:none;}
	.st1{display:inline;stroke:#FFFFFF;stroke-miterlimit:10;}
	.st2{fill:none;stroke:#FFFFFF;stroke-width:6;stroke-miterlimit:10;}
</style>
<g id="Calque_2" class="st0">
	<rect x="3" class="st1" width="276" height="359.2"/>
</g>
<g id="Capa_1">
	<title>sound-off-contour</title>
	<path class="st2" d="M230,188.6V26.2c0-8.5-4.6-16.3-12-20.4C214.6,4,210.7,3,206.8,3c-4.4,0-8.7,1.2-12.3,3.6L71.9,85.1H33.2
		C16.5,85.1,3,98.9,3,115.8v98.4c0,17,13.5,30.9,30.1,30.9h38.8l36.7,23.3c0,0.8,0,1.5,0,2.3c0,48.9,39.6,88.5,88.5,88.5
		s88.5-39.6,88.5-88.5C285.6,234.6,263.6,202,230,188.6z M148.2,302.9c-17.8-26.9-10.4-63.2,16.6-81c19.5-12.9,44.9-12.9,64.4,0
		L148.2,302.9z M197.1,329.2c-9.2,0-18.2-2.2-26.4-6.3l78.6-78.6c14.6,28.8,3,64-25.8,78.6C215.3,327.1,206.2,329.2,197.1,329.2
		L197.1,329.2z"/>
	<path class="st2" d="M230.1,188.4c-30.3-11.8-64.6-6.1-89.4,14.9c-20.6,17.4-32,42.4-32.1,67.5"/>
</g>
</svg>
