<?xml version="1.0" encoding="utf-8"?>
<!-- Generator: Adobe Illustrator 22.1.0, SVG Export Plug-In . SVG Version: 6.00 Build 0)  -->
<svg version="1.1" id="Capa_1" xmlns="http://www.w3.org/2000/svg" xmlns:xlink="http://www.w3.org/1999/xlink" x="0px" y="0px"
	 viewBox="0 0 117.3 104.5" style="enable-background:new 0 0 117.3 104.5;" xml:space="preserve">
<style type="text/css">
	.st0{fill:none;stroke:#FFFFFF;stroke-miterlimit:10;}
</style>
<title>audio-speaker-on-contour</title>
<path class="st0" d="M48.9,8.9L27,25.3H7c-3.3,0-6,2.7-6,6v41.8c0,3.3,2.7,6,6,6h20l21.9,16.4c2.7,2,6.4,1.5,8.4-1.2
	c0.8-1,1.2-2.3,1.2-3.6v-77c0-3.3-2.7-6-6-6C51.2,7.7,49.9,8.1,48.9,8.9z"/>
<path class="st0" d="M78.3,18.7c-2.6-2.8-7.1-3-9.9-0.3s-3,7.1-0.3,9.9c0.1,0.1,0.2,0.2,0.3,0.3c13,13,13,34.1,0,47.1
	c-2.7,2.7-2.7,7.2,0,9.9c2.7,2.7,7.1,2.7,9.7,0c0,0,0,0,0.1-0.1c18.5-18.2,18.7-48,0.4-66.5C78.5,18.9,78.4,18.8,78.3,18.7z"/>
<path class="st0" d="M86.1,3c-2.7,2.7-2.7,7.2,0,9.9c21.7,21.7,21.7,56.8,0.1,78.5c0,0,0,0-0.1,0.1c-2.7,2.8-2.7,7.2,0.1,10
	c1.3,1.3,3,2,4.8,2c1.8,0,3.6-0.7,4.9-2c27.2-27.1,27.2-71.2,0.1-98.3c0,0,0,0-0.1-0.1c-2.6-2.7-7-2.8-9.7-0.2
	C86.2,2.9,86.1,3,86.1,3z"/>
</svg>
