<?xml version="1.0" encoding="utf-8"?>
<!-- Generator: Adobe Illustrator 22.1.0, SVG Export Plug-In . SVG Version: 6.00 Build 0)  -->
<svg version="1.1" xmlns="http://www.w3.org/2000/svg" xmlns:xlink="http://www.w3.org/1999/xlink" x="0px" y="0px"
	 viewBox="0 0 512 512" style="enable-background:new 0 0 512 512;" xml:space="preserve">
<style type="text/css">
	.st0{fill:#FFFFFF;}
</style>
<g id="Calque_2">
</g>
<g id="Layer_1">
	<path class="st0" d="M503.2,328.5c-8.1-6.5-19.5-6.6-27.8-0.3c-36.4,27.8-79.9,42.5-125.9,42.5c-12.5,0-25-1.1-37.2-3.3
		c-4.9-0.9-9.5,2.3-10.4,7.2c-0.9,4.9,2.3,9.5,7.2,10.4c13.3,2.4,26.9,3.6,40.4,3.6c49.9,0,97.2-16,136.7-46.2
		c1.7-1.3,4.1-1.3,5.8,0.1c1.7,1.3,2.2,3.6,1.3,5.6c-19.5,42.6-50.6,78.8-89.9,104.6c-40.4,26.4-87.3,40.4-135.8,40.4
		c-136.7,0-248-111.3-248-248.1c0-48.5,14-95.4,40.4-135.8c25.8-39.3,62-70.3,104.6-89.9c2-0.9,4.2-0.3,5.6,1.3
		c1.3,1.7,1.4,4,0.1,5.7c-30.3,39.7-46.2,87-46.2,136.9c0,48.3,15.1,94.4,43.7,133.3c28,38.1,66.4,66.1,111.1,80.8
		c4.7,1.6,9.8-1,11.3-5.7c1.6-4.7-1-9.8-5.7-11.3C199.3,332.1,142,252.9,142,163.2c0-45.9,14.7-89.4,42.5-125.9
		c6.3-8.3,6.2-19.7-0.3-27.8s-17.6-10.8-27-6.4C111.4,24,72.7,57.3,45.1,99.5C16.7,142.7,1.7,193.1,1.7,245
		c0,146.7,119.3,266,266,266c52,0,102.3-15,145.6-43.4c42.2-27.6,75.5-66.4,96.4-112.1C514,346.1,511.3,335,503.2,328.5z"/>
	<path class="st0" d="M276.8,357.6c0,0,22.9,8.6,46.2,11.4c20.5,1.6,0,18.1-5.4,17.3c-7.7,0-37.7-8.1-48.1-12.4
		C259,369.7,276.8,357.6,276.8,357.6"/>
</g>
</svg>
