<svg id="Layer_1" data-name="Layer 1" xmlns="http://www.w3.org/2000/svg" viewBox="0 0 510.03 510"><defs><style>.cls-1{fill:#fff;}</style></defs><title>dark-mode-moon</title><path class="cls-1" d="M278.9,377.3a8.95,8.95,0,1,0,5.6-17,207.61,207.61,0,0,1-100-323A22.55,22.55,0,0,0,157.2,3.1,266.17,266.17,0,0,0,1.7,245c0,146.7,119.3,266,266,266a266.17,266.17,0,0,0,242-155.5,22.61,22.61,0,0,0-34.3-27.3,205.64,205.64,0,0,1-125.9,42.5,210,210,0,0,1-37.2-3.3,8.94,8.94,0,1,0-3.2,17.6,228.15,228.15,0,0,0,40.4,3.6" transform="translate(-1.7 -1)"/><path class="cls-1" d="M276.85,357.6S299.71,366.15,323,369c20.51,1.57,0,18.15-5.41,17.32-7.65,0-37.67-8.13-48.14-12.39s7.37-16.37,7.37-16.37" transform="translate(-1.7 -1)"/></svg>