<?xml version="1.0" encoding="utf-8"?>
<!-- Generator: Adobe Illustrator 22.1.0, SVG Export Plug-In . SVG Version: 6.00 Build 0)  -->
<svg version="1.1" id="Layer_1" xmlns="http://www.w3.org/2000/svg" xmlns:xlink="http://www.w3.org/1999/xlink" x="0px" y="0px"
	 viewBox="0 0 512 512" style="enable-background:new 0 0 512 512;" xml:space="preserve">
<style type="text/css">
	.st0{fill:#FFFFFF;}
</style>
<path class="st0" d="M503.2,328.5c-8.1-6.5-19.5-6.6-27.8-0.3c-36.4,27.8-79.9,42.5-125.9,42.5c-12.5,0-25-1.1-37.2-3.3
	c-4.9-0.9-9.5,2.3-10.4,7.2c-0.9,4.9,2.3,9.5,7.2,10.4c13.3,2.4,26.9,3.6,40.4,3.6c49.9,0,97.2-16,136.7-46.2
	c1.7-1.3,4.1-1.3,5.8,0.1c1.7,1.3,2.2,3.6,1.3,5.6c-19.5,42.6-50.6,78.8-89.9,104.6c-40.4,26.4-87.3,40.4-135.8,40.4
	C130.9,493.1,19.6,381.8,19.6,245c0-48.5,14-95.4,40.4-135.8C85.8,69.9,122,38.9,164.6,19.3c2-0.9,4.2-0.3,5.6,1.3
	c1.3,1.7,1.4,4,0.1,5.7C140,66,124.1,113.3,124.1,163.2c0,48.3,15.1,94.4,43.7,133.3c28,38.1,66.4,66.1,111.1,80.8
	c4.7,1.6,9.8-1,11.3-5.7c1.6-4.7-1-9.8-5.7-11.3C199.3,332.1,142,252.9,142,163.2c0-45.9,14.7-89.4,42.5-125.9
	c6.3-8.3,6.2-19.7-0.3-27.8c-6.5-8.1-17.6-10.8-27-6.4C111.4,24,72.7,57.3,45.1,99.5C16.7,142.7,1.7,193.1,1.7,245
	c0,146.7,119.3,266,266,266c52,0,102.3-15,145.6-43.4c42.2-27.6,75.5-66.4,96.4-112.1C514,346.1,511.3,335,503.2,328.5z"/>
</svg>
