<?xml version="1.0" encoding="utf-8"?>
<!-- Generator: Adobe Illustrator 23.0.1, SVG Export Plug-In . SVG Version: 6.00 Build 0)  -->
<svg version="1.1" id="Capa_1" xmlns="http://www.w3.org/2000/svg" xmlns:xlink="http://www.w3.org/1999/xlink" x="0px" y="0px"
	 viewBox="0 0 512 512" style="enable-background:new 0 0 512 512;" xml:space="preserve">
<style type="text/css">
	.st0{fill:#FFFFFF;}
</style>
<g>
	<path class="st0" d="M332.7,4.5C321.8-1.7,309-1.5,298.3,5c-0.5,0.3-1,0.7-1.4,1L146,133.6H27.7c-6.2,0-11.1,5-11.1,11.1v211.5
		c0,3,1.2,5.8,3.3,7.9c2.1,2.1,4.9,3.3,7.9,3.3l118.1-0.1l150.7,138.5c0.6,0.5,1.2,1,1.8,1.3c5.5,3.3,11.5,5,17.6,5
		c5.8,0,11.5-1.5,16.8-4.5c11.1-6.3,17.8-17.8,17.8-30.7V35.1C350.5,22.2,343.8,10.8,332.7,4.5z"/>
	<path class="st0" d="M386.9,106.2c-5.9-1.7-12.1,1.7-13.8,7.6c-1.7,5.9,1.7,12.1,7.6,13.8c54.4,15.7,92.4,66.3,92.4,122.9
		s-38,107.1-92.4,122.9c-5.9,1.7-9.3,7.9-7.6,13.8c1.4,4.9,5.9,8,10.7,8c1,0,2.1-0.1,3.1-0.4c63.9-18.5,108.5-77.8,108.5-144.3
		S450.8,124.7,386.9,106.2z"/>
</g>
</svg>
