<svg xmlns="http://www.w3.org/2000/svg" viewBox="0 0 70.149 162.707">
  <defs>
    <style>
      .cls-1 {
        fill: none;
        stroke: #7fb8f5;
        stroke-miterlimit: 10;
        stroke-width: 2.5px;
      }
    </style>
  </defs>
  <g id="_004-book" data-name="004-book" transform="translate(1.299 1.25)">
    <g id="Groupe_13" data-name="Groupe 13" transform="translate(0)">
      <g id="Groupe_12" data-name="Groupe 12" transform="translate(0)">
        <circle id="Ellipse_4" data-name="Ellipse 4" class="cls-1" cx="13.466" cy="13.466" r="13.466" transform="translate(20.07)"/>
        <path id="Tracé_29" data-name="Tracé 29" class="cls-1" d="M222.292,146.5a24.122,24.122,0,0,0-10.293.141c-22.42,2.609-29.681,28.553-27.637,48.364.917,8.531,14.382,8.672,13.466,0-.776-7.191-.423-18.119,3.384-25.8v28.2a4.653,4.653,0,0,0,.071.987c0,.141-.071.282-.071.423,0,22.349-.071,44.7-.987,67.118-.423,9.941,15.017,9.87,15.369,0,.705-17.485.917-35.04.917-52.595a11.324,11.324,0,0,0,2.186,0c.071,17.555.212,35.04.917,52.595.423,9.87,15.792,9.941,15.369,0-.917-22.349-.987-44.7-.987-67.118a7.861,7.861,0,0,0-.211-1.9c0-9.729-.423-19.459-.282-29.117,4.583,7.755,5.006,19.6,4.23,27.284-.916,8.6,12.549,8.531,13.466,0C253.454,174.767,245.84,148.188,222.292,146.5Z" transform="translate(-184.033 -113.149)"/>
      </g>
    </g>
  </g>
</svg>
