<svg xmlns="http://www.w3.org/2000/svg" viewBox="0 0 86.589 92.877">
  <defs>
    <style>
      .cls-1 {
        fill: #7fb8f5;
      }
    </style>
  </defs>
  <path id="_002-share" data-name="002-share" class="cls-1" d="M61.711,66.01A15.96,15.96,0,0,0,59.562,68.7l-27.2-16.513a15.567,15.567,0,0,0,0-11.628L59.57,24.172a15.825,15.825,0,1,0-1.42-2.821L30.9,37.76a15.744,15.744,0,1,0,0,17.226L58.144,71.522a15.73,15.73,0,1,0,3.567-5.512ZM72.843,3.149A12.595,12.595,0,1,1,60.249,15.743,12.609,12.609,0,0,1,72.843,3.149Zm-55.1,55.819A12.595,12.595,0,1,1,30.336,46.373,12.609,12.609,0,0,1,17.742,58.968Zm64.006,27.08a12.594,12.594,0,1,1,3.69-8.906A12.608,12.608,0,0,1,81.748,86.048Z" transform="translate(-1.997)"/>
</svg>
