<svg xmlns="http://www.w3.org/2000/svg" viewBox="0 0 92.504 92.56">
  <defs>
    <style>
      .cls-1 {
        fill: none;
        stroke: #7fb8f5;
        stroke-width: 2.5px;
      }
    </style>
  </defs>
  <g id="Layer_2_16_" transform="translate(1.253 1.303)">
    <g id="Groupe_14" data-name="Groupe 14" transform="translate(0 0)">
      <path id="Tracé_30" data-name="Tracé 30" class="cls-1" d="M257.85,423.263c-.738.184-1.491.347-2.239.485a3.6,3.6,0,0,0,1.311,7.08c.89-.165,1.787-.359,2.667-.579a3.6,3.6,0,0,0-1.74-6.986Z" transform="translate(-203.755 -340.924)"/>
      <path id="Tracé_31" data-name="Tracé 31" class="cls-1" d="M413.5,143.3a3.6,3.6,0,0,0,6.835-2.263c-.285-.86-.6-1.723-.937-2.563a3.6,3.6,0,1,0-6.684,2.673C413,141.853,413.265,142.578,413.5,143.3Z" transform="translate(-332.612 -109.956)"/>
      <path id="Tracé_32" data-name="Tracé 32" class="cls-1" d="M324.619,394.508c-.635.419-1.29.825-1.951,1.205a3.6,3.6,0,1,0,3.6,6.236c.785-.453,1.565-.934,2.322-1.434a3.6,3.6,0,0,0-3.969-6.007Z" transform="translate(-258.754 -317.309)"/>
      <path id="Tracé_33" data-name="Tracé 33" class="cls-1" d="M434.831,210.77a3.6,3.6,0,1,0-7.194.283c.03.759.038,1.53.02,2.289a3.6,3.6,0,1,0,7.2.159C434.874,212.594,434.867,211.676,434.831,210.77Z" transform="translate(-344.865 -167.18)"/>
      <path id="Tracé_34" data-name="Tracé 34" class="cls-1" d="M384.086,344.79a3.6,3.6,0,0,0-5.041.72c-.457.609-.938,1.211-1.431,1.79a3.6,3.6,0,0,0,.407,5.074c.086.073.173.14.264.2a3.6,3.6,0,0,0,4.811-.61c.588-.691,1.162-1.41,1.708-2.137A3.6,3.6,0,0,0,384.086,344.79Z" transform="translate(-303.781 -277.252)"/>
      <path id="Tracé_35" data-name="Tracé 35" class="cls-1" d="M419.252,279.517a3.6,3.6,0,0,0-4.512,2.358c-.227.725-.48,1.453-.752,2.166a3.6,3.6,0,0,0,6.727,2.563c.323-.848.623-1.714.894-2.576A3.6,3.6,0,0,0,419.252,279.517Z" transform="translate(-333.655 -225.161)"/>
      <path id="Tracé_36" data-name="Tracé 36" class="cls-1" d="M38.335,84.456a37.212,37.212,0,0,1-9.287-2.971c-.035-.018-.066-.039-.1-.056-.694-.329-1.387-.681-2.058-1.049a.028.028,0,0,0-.01-.006A38.121,38.121,0,0,1,14.146,25.115a37.748,37.748,0,0,1,9.286-9.3l.13-.091a37.643,37.643,0,0,1,42.418-.342L63.151,19.5c-.786,1.145-.3,1.98,1.074,1.855l12.288-1.107a2.036,2.036,0,0,0,1.832-2.665l-3.3-11.967c-.369-1.342-1.315-1.5-2.1-.357L70.108,9.378A44.481,44.481,0,0,0,37.342,2.365q-1.738.3-3.429.737l-.023,0c-.044.011-.088.025-.13.037A44.633,44.633,0,0,0,9,19.844c-.052.062-.106.123-.155.191-.205.278-.409.563-.609.848-.326.467-.648.946-.956,1.424-.039.058-.068.116-.1.175a45.154,45.154,0,0,0-7.135,26.5c0,.031,0,.062,0,.093.041.914.113,1.841.211,2.753.005.059.018.115.028.173.1.917.228,1.837.387,2.757a45.076,45.076,0,0,0,12.6,24.391l.047.048c.005.006.011.009.017.015A45.692,45.692,0,0,0,19.1,84.067,44.488,44.488,0,0,0,37.057,91.63a3.644,3.644,0,0,0,1.278-7.174Z" transform="translate(0 -1.688)"/>
      <path id="Tracé_37" data-name="Tracé 37" class="cls-1" d="M208.9,83.2a2.913,2.913,0,0,0-2.914,2.913v29.018l26.539,13.719a2.912,2.912,0,0,0,2.674-5.174l-23.389-12.092V86.111A2.912,2.912,0,0,0,208.9,83.2Z" transform="translate(-166.031 -67.105)"/>
    </g>
  </g>
</svg>
